# xmcd
#
# Track frame offsets: 
#        150
#        60100
#        87425
#        96200
#        108575
#        127300
#        145637
#        169612
#        194450
#
# Disc length: 2699 seconds
#
# Revision: 1
# Processed by: cddbd v1.5.2PL0 Copyright (c) Steve Scherf et al.
# Submitted via: ExactAudioCopy v0.99pb4
#
DISCID=780a8909
DTITLE=Various Artist - Ohrenschrauben
DYEAR=1985
DGENRE=Experimental
TTITLE0=Whitehouse - My Cock's On Fire
TTITLE1=H.N.A.S. - Christoph Yööl A
TTITLE2=Vagina Dentata Organ - Kill Baby, Kill!
TTITLE3=The New Blockaders and Organum - "---------------"
TTITLE4=Toll - There Must Be More Than This
TTITLE5=Current 93 - I'm The One
TTITLE6=P16.D4 - (Virtuell) Ausgemerzt
TTITLE7=Nurse With Wound - The Poo Poo Song
TTITLE8=The Haters - Crasbreak
EXTD=
EXTT0=
EXTT1=
EXTT2=
EXTT3=
EXTT4=
EXTT5=
EXTT6=
EXTT7=
EXTT8=
PLAYORDER=
